<svg xmlns="http://www.w3.org/2000/svg" viewBox="0 0 297 297" style="enable-background:new 0 0 297 297" xml:space="preserve">
<path fill="#fffafa" d="M83.119 103.678h22.724v64.692c0 5.504 4.463 9.966 9.966 9.966h65.382c5.504 0 9.966-4.463 9.966-9.966v-64.692h22.724a9.966 9.966 0 0 0 7.047-17.014l-65.382-65.381c-3.893-3.891-10.202-3.891-14.095 0l-65.38 65.381a9.967 9.967 0 0 0 7.048 17.014zM148.5 42.424l41.321 41.321h-8.629c-5.504 0-9.966 4.463-9.966 9.966v64.692h-45.45V93.712c0-5.504-4.463-9.966-9.966-9.966h-8.629L148.5 42.424z"/>
<path fill="#fffafa" d="M287.034 135.563h-46.178c-5.504 0-9.966 4.463-9.966 9.966v51.604H66.11v-51.604c0-5.504-4.463-9.966-9.966-9.966H9.966c-5.504 0-9.966 4.463-9.966 9.966v89.712c0 23.928 19.467 43.395 43.395 43.395h210.21c23.928 0 43.395-19.467 43.395-43.395v-89.712c0-5.504-4.463-9.966-9.966-9.966zm-9.967 99.678c0 12.937-10.525 23.462-23.462 23.462H43.395c-12.937 0-23.462-10.525-23.462-23.462v-79.745h26.245V207.1c0 5.504 4.463 9.966 9.966 9.966h184.712c5.504 0 9.966-4.463 9.966-9.966v-51.604h26.245v79.745z"/></svg>